<svg width="100" height="64" viewBox="0 0 100 64" fill="none" xmlns="http://www.w3.org/2000/svg">
<path fill-rule="evenodd" clip-rule="evenodd" d="M51.6885 0.657481L39.3771 14.4474L34.7283 9.35807C34.4959 9.12967 33.9574 9.0995 33.7095 9.40978C25.0822 20.2694 12.0773 26.1301 15.6103 44.8025C15.6374 44.9533 15.8621 45.0309 16.0674 44.8714C37.4866 28.3968 66.3669 28.3925 87.7783 44.893C87.8635 44.9576 88.1735 45.0007 88.2199 44.7422C91.6096 26.1602 78.7171 20.2435 70.1092 9.40978C69.8651 9.0995 69.3189 9.13398 69.0903 9.35807L64.4416 14.4474L52.1263 0.653171C52.0294 0.536819 51.8163 0.515272 51.6885 0.657481ZM51.0919 29.1509C49.2595 23.9969 44.7464 21.0666 41.5736 17.0244L51.5645 5.57014C51.8551 5.19954 52.0023 5.2728 52.2464 5.57014L62.2373 17.0244C59.0645 21.0666 54.5514 23.9969 52.719 29.1509C52.1805 29.1509 51.6381 29.1509 51.0919 29.1509ZM78.5312 35.3047C75.587 24.8416 70.6554 22.2301 66.6691 17.0632L69.4119 13.9949C69.5475 13.8398 69.9465 13.8226 70.1247 14.0639C76.2455 22.3939 86.0738 28.1555 85.6825 39.3124L78.5312 35.3047ZM64.4958 19.3773C67.8623 24.1219 71.7789 26.3412 74.5952 33.6068C68.5751 30.7497 62.3923 29.5129 56.1203 29.2026C58.5919 25.2294 61.7453 22.4887 64.4958 19.3773ZM25.2836 35.3047L18.1284 39.3081C17.7371 28.1512 27.5654 22.3896 33.6862 14.0596C33.8644 13.8139 34.2673 13.8355 34.399 13.9906L37.1418 17.0589C33.1594 22.2301 28.2317 24.8416 25.2836 35.3047ZM39.3228 19.3773C42.0733 22.4887 45.2229 25.2294 47.6983 29.207C41.4264 29.5172 35.2435 30.754 29.2234 33.6111C32.0398 26.3412 35.9564 24.1219 39.3228 19.3773Z" fill="#FFD58D"/>
<path fill-rule="evenodd" clip-rule="evenodd" d="M5.56125 50.215V50.5727C4.56951 50.5727 4.07752 51.1243 4.08139 52.2361V59.3508C4.08914 60.4842 4.39906 61.3374 4.99177 61.9192C5.58449 62.4967 6.41352 62.7854 7.49048 62.7854C8.56744 62.7854 9.39259 62.501 9.96981 61.9408C10.5587 61.3848 10.8492 60.523 10.8492 59.3508V52.2361C10.8492 51.1286 10.3572 50.5727 9.36935 50.5727V50.215H12.6932V50.5727C11.7247 50.5727 11.2405 51.1243 11.2405 52.2361V59.3508C11.2405 60.7126 10.8143 61.7727 9.96594 62.5225C9.12529 63.2637 7.99797 63.6386 6.58397 63.6386C5.12349 63.6386 3.9768 63.268 3.1439 62.5225C2.36136 61.8072 1.97009 60.7471 1.97009 59.3508V52.2361C1.97396 51.1286 1.48197 50.5727 0.490234 50.5727V50.215H5.56125Z" fill="#FFD58D"/>
<path fill-rule="evenodd" clip-rule="evenodd" d="M96.9904 59.6426C96.7541 60.4355 96.4016 61.1121 95.9328 61.6723C95.4563 62.2411 94.9643 62.6203 94.4568 62.8186C93.9571 63.0082 93.3954 63.1073 92.7717 63.1073C91.2415 63.1073 90.4783 62.3919 90.4783 60.9526V50.7049H91.9233C92.6245 50.7049 93.3295 50.8601 94.0385 51.1747C94.7435 51.4893 95.3324 51.9374 95.8011 52.5192C96.7696 53.7172 97.281 55.1824 97.3313 56.9104C97.3507 57.9016 97.2422 58.8152 96.9904 59.6426ZM99.5046 56.9104C99.4969 56.0227 99.3148 55.1651 98.9661 54.3334C98.6407 53.5534 98.2068 52.8596 97.649 52.2563C97.095 51.6616 96.4209 51.1833 95.6307 50.8213C94.8559 50.4766 94.0346 50.2999 93.1629 50.2999H86.9065V50.6662C87.9021 50.6834 88.4018 51.2393 88.4018 52.3296V61.5171C88.4018 62.5945 87.906 63.1418 86.9065 63.159V63.5253H93.8603C95.4602 63.5253 96.8122 62.8746 97.9124 61.5818C99.0165 60.2803 99.5472 58.7204 99.5046 56.9104Z" fill="#FFD58D"/>
<path fill-rule="evenodd" clip-rule="evenodd" d="M78.8216 59.7287C78.7093 62.0213 77.4037 63.1676 74.9012 63.1676C73.1153 63.1676 72.2204 62.4307 72.2204 60.9483V56.6131H72.2243V56.2037H72.2204V50.7006H75.2033C76.9815 50.7006 77.9267 51.6358 78.0352 53.506L78.3567 53.45L78.1747 50.2999H68.6525V50.6662C69.6481 50.6446 70.1401 51.2048 70.1362 52.3296V61.5171C70.1362 62.5859 69.6403 63.1374 68.6525 63.159V63.5253H78.9107L79.116 59.7546L78.8216 59.7287Z" fill="#FFD58D"/>
<path fill-rule="evenodd" clip-rule="evenodd" d="M74.9322 55.3776L73.8901 56.9764L74.9322 58.5751L75.9743 56.9764L74.9322 55.3776Z" fill="#FFD58D"/>
<path fill-rule="evenodd" clip-rule="evenodd" d="M36.4173 50.6727V50.3064L33.0121 50.2978L29.1924 60.7265L25.3843 51.1856C25.2642 50.8839 25.1984 50.5866 25.1867 50.2935L21.3011 50.3021V50.6684C22.6609 50.6684 23.1645 51.7371 23.1645 51.7371L27.9334 63.506H28.53L32.8765 51.7371V61.4978C32.8765 62.6053 32.3691 63.1656 31.3657 63.1699V63.5232H36.4212V63.1699C35.4217 63.1699 34.9259 62.614 34.9259 61.4978V52.3318C34.9259 51.2243 35.4217 50.6727 36.4173 50.6727Z" fill="#FFD58D"/>
<path fill-rule="evenodd" clip-rule="evenodd" d="M21.9598 61.9408L23.0019 63.5395L24.044 61.9408L23.0019 60.3334L21.9598 61.9408Z" fill="#FFD58D"/>
<path fill-rule="evenodd" clip-rule="evenodd" d="M59.9593 50.6727V50.3064L56.5541 50.2978L52.7344 60.7265L48.9263 51.1856C48.8062 50.8839 48.7403 50.5866 48.7287 50.2935L44.8431 50.3021V50.6684C46.2029 50.6684 46.7065 51.7371 46.7065 51.7371L51.4753 63.506H52.0719L56.4185 51.7371V61.4978C56.4185 62.6053 55.911 63.1656 54.9077 63.1699V63.5232H59.9632V63.1699C58.9637 63.1699 58.4678 62.614 58.4678 61.4978V52.3318C58.4678 51.2243 58.9637 50.6727 59.9593 50.6727Z" fill="#FFD58D"/>
<path fill-rule="evenodd" clip-rule="evenodd" d="M45.5017 61.9408L46.5438 63.5395L47.5898 61.9408L46.5438 60.3334L45.5017 61.9408Z" fill="#FFD58D"/>
<path fill-rule="evenodd" clip-rule="evenodd" d="M51.8938 12.5642L49.8484 15.7014L51.8938 18.8343L53.9393 15.7014L51.8938 12.5642Z" fill="#FFD58D"/>
</svg>
